<?xml version="1.0" encoding="UTF-8"?>
<svg width="750px" height="800px" viewBox="0 0 750 800" version="1.1" xmlns="http://www.w3.org/2000/svg" xmlns:xlink="http://www.w3.org/1999/xlink">
    <!-- Generator: Sketch 55.2 (78181) - https://sketchapp.com -->
    <title>Group</title>
    <desc>Created with Sketch.</desc>
    <g id="Page-1" stroke="none" stroke-width="1" fill="none" fill-rule="evenodd">
        <g id="Group" fill-rule="nonzero">
            <rect id="Rectangle" fill="#F7DF1E" x="0" y="0" width="630" height="800"></rect>
            <path d="M426.640548,655.255233 C437.360326,672.756776 451.30702,685.621086 475.973493,685.621086 C496.695019,685.621086 509.932129,675.265443 509.932129,660.956749 C509.932129,643.809966 496.33178,637.736796 473.52374,627.761254 L461.021555,622.397605 C424.934168,607.024628 400.960385,587.766173 400.960385,547.053123 C400.960385,509.549815 429.538013,481 474.199534,481 C505.995631,481 528.854355,492.065165 545.326828,521.037315 L506.384212,546.03952 C497.810079,530.666542 488.560151,524.610265 474.199534,524.610265 C459.551704,524.610265 450.267987,533.901625 450.267987,546.03952 C450.267987,561.040843 459.560151,567.114013 481.016604,576.405373 L493.518788,581.760575 C536.009321,599.980088 560,618.554361 560,660.3148 C560,705.335663 524.630644,730 477.130789,730 C430.686863,730 400.68162,707.86967 386,678.863734 L426.640548,655.255233 Z M249.790587,659.696189 C257.662604,673.630278 264.823599,685.410917 282.04046,685.410917 C298.503978,685.410917 308.889961,678.984346 308.889961,653.995881 L308.889961,484 L359,484 L359,654.671473 C359,706.438723 328.578466,730 284.173523,730 C244.051634,730 220.816489,709.284655 209,684.334192 L249.790587,659.696189 Z" id="Shape" fill="#000000"></path>
            <rect id="Rectangle" fill="#F7DF1E" opacity="0.5" x="630" y="50.5" width="60" height="700"></rect>
            <rect id="Rectangle-Copy" fill="#F7DF1E" opacity="0.2" x="690" y="100.5" width="60" height="600"></rect>
        </g>
    </g>
</svg>